<svg width="150" height="150" viewBox="0 0 150 150" fill="none" xmlns="http://www.w3.org/2000/svg">
<g clip-path="url(#clip0_303_4)">
<rect width="150" height="150" fill="#333333"/>
<path d="M31.2842 50.3965H38.4961V70.1182H63.6865V50.3965H70.8643V99H63.6865V77.2959H38.4961V99H31.2842V50.3965Z" fill="#FF7E2D"/>
<path d="M79.751 62.1543C79.751 59.9896 80.2865 58.0186 81.3574 56.2412C82.4512 54.4639 83.9095 53.0511 85.7324 52.0029C87.5781 50.932 89.6061 50.3965 91.8164 50.3965H116.973V57.5742H91.8164C90.4948 57.5742 89.3555 58.0413 88.3984 58.9756C87.4414 59.9098 86.9629 61.0378 86.9629 62.3594V65.709C86.9629 66.9167 87.4414 67.9535 88.3984 68.8193C89.3555 69.6852 90.4948 70.1182 91.8164 70.1182H107.3C109.533 70.1182 111.561 70.6536 113.384 71.7246C115.207 72.7728 116.654 74.1969 117.725 75.9971C118.818 77.7744 119.365 79.7454 119.365 81.9102V87.208C119.365 89.3727 118.818 91.3551 117.725 93.1553C116.654 94.9326 115.207 96.3568 113.384 97.4277C111.561 98.4759 109.533 99 107.3 99H79.7852V91.7881H107.3C108.644 91.7881 109.784 91.3438 110.718 90.4551C111.675 89.5436 112.153 88.4499 112.153 87.1738V81.9443C112.153 80.6683 111.675 79.5745 110.718 78.6631C109.784 77.7516 108.644 77.2959 107.3 77.2959H91.8164C89.6061 77.2959 87.5781 76.7832 85.7324 75.7578C83.9095 74.7096 82.4512 73.3083 81.3574 71.5537C80.2865 69.7992 79.751 67.8623 79.751 65.7432V62.1543Z" fill="#1761A0"/>
</g>
<defs>
<clipPath id="clip0_303_4">
<rect width="150" height="150" rx="20" fill="white"/>
</clipPath>
</defs>
</svg>
